# File created by Blade
# Date/Time:  Wed Jan 28 16:58:26 2015
#---------------------------------------------------------
:version 1.10
:name HOM
:units
  mass 1.0
  length 1.000000
  angle deg
:documentation
     Acclaim Skeleton File
:root
   axis xyz
   order TX TY TZ RX RY RZ
   position 0.000000 0.000000 0.000000
   orientation 0 0 0
:bonedata
   begin
      id 1
      name Spine_dum
      direction 0.000000 1.000000 0.000000
      length 9.621153
      axis 0.0 0.0 0.0 xyz
   end
   begin
      id 2
      name LeftUpLeg_dum
      direction 1.000000 0.000000 0.000000
      length 2.700595
      axis 0.0 0.0 0.0 xyz
   end
   begin
      id 3
      name RightUpLeg_dum
      direction -1.000000 0.000000 0.000000
      length 2.700595
      axis 0.0 0.0 0.0 xyz
   end
   begin
      id 4
      name Spine
      direction 0.000000 1.000000 0.000000
      length 0.000000
      axis 0.0 0.0 0.0 xyz
      dof rx ry rz
   end
   begin
      id 5
      name Spine_dum1
      direction 0.000000 1.000000 0.000000
      length 12.771951
      axis 0.0 0.0 0.0 xyz
   end
   begin
      id 6
      name Spine_dum2
      direction 0.000000 1.000000 0.000000
      length 7.400569
      axis 0.0 0.0 0.0 xyz
   end
   begin
      id 7
      name Spine_dum3
      direction 0.000000 1.000000 0.000000
      length 7.400569
      axis 0.0 0.0 0.0 xyz
   end
   begin
      id 8
      name Head
      direction 0.000000 1.000000 0.000000
      length 4.527550
      axis 0.0 0.0 0.0 xyz
      dof rx ry rz
   end
   begin
      id 9
      name LeftShoulder
      direction 1.000000 0.000000 0.000000
      length 8.349299
      axis 0.0 0.0 -90.0 xyz
      dof rx ry rz
   end
   begin
      id 10
      name LeftArm
      direction 1.000000 0.000000 0.000000
      length 11.334839
      axis 0.0 0.0 -90.0 xyz
      dof rx ry rz
   end
   begin
      id 11
      name LeftForeArm
      direction 1.000000 0.000000 0.000000
      length 9.694182
      axis 0.0 0.0 -90.0 xyz
      dof ry rz rx
   end
   begin
      id 12
      name LeftHand
      direction 0.000000 0.000000 0.000000
      length 0.000000
      axis 0.0 0.0 -90.0 xyz
      dof rx ry rz
   end
   begin
      id 13
      name LeftHand_dum1
      direction 0.000000 0.000000 0.000000
      length 0.000000
      axis 0.0 0.0 -90.0 xyz
   end
   begin
      id 14
      name LeftHand_dum2
      direction 1.000000 0.000000 0.000000
      length 3.937000
      axis 0.0 0.0 -90.0 xyz
   end
   begin
      id 15
      name LeftHandThumb1
      direction 0.000000 0.000000 1.000000
      length 3.937000
      axis 0.0 0.0 -90.0 xyz
      dof rx rz ry
   end
   begin
      id 16
      name RightShoulder
      direction -1.000000 0.000000 0.000000
      length 8.349299
      axis 0.0 0.0 90.0 xyz
      dof rx ry rz
   end
   begin
      id 17
      name RightArm
      direction -1.000000 0.000000 0.000000
      length 11.334839
      axis 0.0 0.0 90.0 xyz
      dof rx ry rz
   end
   begin
      id 18
      name RightForeArm
      direction -1.000000 0.000000 0.000000
      length 9.694182
      axis 0.0 0.0 90.0 xyz
      dof ry rz rx
   end
   begin
      id 19
      name RightHand
      direction 0.000000 0.000000 0.000000
      length 0.000000
      axis 0.0 0.0 90.0 xyz
      dof rx ry rz
   end
   begin
      id 20
      name RightHand_dum1
      direction 0.000000 0.000000 0.000000
      length 0.000000
      axis 0.0 0.0 90.0 xyz
   end
   begin
      id 21
      name RightHand_dum2
      direction -1.000000 0.000000 0.000000
      length 3.937000
      axis 0.0 0.0 90.0 xyz
   end
   begin
      id 22
      name RightHandThumb1
      direction 0.000000 0.000000 1.000000
      length 3.937000
      axis 0.0 0.0 90.0 xyz
      dof rx rz ry
   end
   begin
      id 23
      name LeftUpLeg
      direction 0.000000 -1.000000 0.000000
      length 16.757176
      axis 0.0 0.0 0.0 xyz
      dof rx ry rz
   end
   begin
      id 24
      name LeftLeg
      direction 0.000000 -1.000000 0.000000
      length 16.759153
      axis 0.0 0.0 0.0 xyz
      dof rx ry rz
   end
   begin
      id 25
      name LeftFoot
      direction 0.000000 -0.258819 0.965926
      length 5.841289
      axis 15.0 0.0 0.0 xyz
      dof rx ry rz
   end
   begin
      id 26
      name LeftToeBase
      direction 0.000000 0.000000 1.000000
      length 2.952750
      axis 0.0 0.0 0.0 xyz
      dof rx ry rz
   end
   begin
      id 27
      name RightUpLeg
      direction 0.000000 -1.000000 0.000000
      length 16.757176
      axis 0.0 0.0 0.0 xyz
      dof rx ry rz
   end
   begin
      id 28
      name RightLeg
      direction 0.000000 -1.000000 0.000000
      length 16.759153
      axis 0.0 0.0 0.0 xyz
      dof rx ry rz
   end
   begin
      id 29
      name RightFoot
      direction 0.000000 -0.258819 0.965926
      length 5.841289
      axis 15.0 0.0 0.0 xyz
      dof rx ry rz
   end
   begin
      id 30
      name RightToeBase
      direction 0.000000 0.000000 1.000000
      length 2.952750
      axis 0.0 0.0 0.0 xyz
      dof rx ry rz
   end
:hierarchy
   begin
      root Spine_dum LeftUpLeg_dum RightUpLeg_dum
      Spine_dum Spine
      LeftUpLeg_dum LeftUpLeg
      RightUpLeg_dum RightUpLeg
      Spine Spine_dum1 Spine_dum2 Spine_dum3
      Spine_dum1 Head
      Spine_dum2 LeftShoulder
      Spine_dum3 RightShoulder
      LeftShoulder LeftArm
      LeftArm LeftForeArm
      LeftForeArm LeftHand
      LeftHand LeftHand_dum1 LeftHand_dum2
      LeftHand_dum1 LeftHandThumb1
      RightShoulder RightArm
      RightArm RightForeArm
      RightForeArm RightHand
      RightHand RightHand_dum1 RightHand_dum2
      RightHand_dum1 RightHandThumb1
      LeftUpLeg LeftLeg
      LeftLeg LeftFoot
      LeftFoot LeftToeBase
      RightUpLeg RightLeg
      RightLeg RightFoot
      RightFoot RightToeBase
   end

# File created by Blade
# Date/Time:  Wed Jan 28 16:58:32 2015
# Frame Rate: 120.000 fps
#------------------------------------------------------
:FULLY-SPECIFIED
:DEGREES
403
root 12.200916 36.237704 -16.733903 163.399106 -22.568900 -162.818309
Spine 28.732259 -8.086772 11.509876
Head 30.198540 19.154259 23.278091
LeftShoulder -2.642102 -4.281520 25.830596
LeftArm 60.837049 -15.986235 -68.254452
LeftForeArm -19.825335 -0.000000 39.403275
LeftHand 5.305809 -0.000000 30.235655
LeftHandThumb1 -26.253704 0.000000 33.147579
RightShoulder -17.382764 -9.885830 -4.498021
RightArm 19.069004 -30.182879 67.813958
RightForeArm -5.700469 -0.000000 31.872501
RightHand -13.414168 -0.000000 8.286434
RightHandThumb1 -24.326973 -0.000000 -32.862282
LeftUpLeg 9.066702 9.014746 12.121777
LeftLeg 7.647217 -0.000000 -0.000000
LeftFoot -13.734953 13.708535 -2.631675
LeftToeBase 8.881819 -0.000000 -0.000000
RightUpLeg -60.674467 9.359590 4.748474
RightLeg 122.790744 -0.000000 -0.000000
RightFoot -0.288215 -8.621710 4.117590
RightToeBase -1.252662 -0.000000 0.000000
404
root 12.213234 36.233678 -16.752940 163.221669 -22.874345 -162.841249
Spine 28.914582 -8.129299 11.451758
Head 29.934445 19.070196 23.318818
LeftShoulder -2.516590 -4.342498 25.802853
LeftArm 61.221625 -15.832845 -68.098058
LeftForeArm -19.957055 -0.000000 39.111259
LeftHand 5.341889 -0.000000 30.203431
LeftHandThumb1 -26.253704 0.000000 33.147579
RightShoulder -17.319904 -9.872373 -4.476460
RightArm 19.114651 -30.389868 67.865345
RightForeArm -5.948739 -0.000000 31.800364
RightHand -13.414673 0.000000 8.419156
RightHandThumb1 -24.326973 -0.000000 -32.862282
LeftUpLeg 9.024562 8.822287 12.078824
LeftLeg 7.962480 -0.000000 -0.000000
LeftFoot -13.820916 13.605238 -2.562626
LeftToeBase 8.832294 -0.000000 -0.000000
RightUpLeg -61.172536 9.466138 4.999400
RightLeg 123.227601 -0.000000 -0.000000
RightFoot -0.214722 -8.509925 4.288352
RightToeBase -1.060162 -0.000000 0.000000
405
root 12.224681 36.230138 -16.770399 163.054382 -23.207594 -162.852969
Spine 29.078010 -8.232461 11.403455
Head 29.688451 19.032684 23.348330
LeftShoulder -2.417007 -4.435734 25.771983
LeftArm 61.570274 -15.683537 -68.034252
LeftForeArm -19.984530 0.000000 38.834875
LeftHand 5.310725 -0.000000 30.132843
LeftHandThumb1 -26.253704 0.000000 33.147579
RightShoulder -17.291801 -9.812513 -4.462259
RightArm 19.189101 -30.600996 67.875639
RightForeArm -5.744117 -0.000000 31.693487
RightHand -13.373169 -0.000000 8.356035
RightHandThumb1 -24.326973 -0.000000 -32.862282
LeftUpLeg 8.997985 8.532616 12.013926
LeftLeg 8.199056 -0.000000 -0.000000
LeftFoot -13.888298 13.573765 -2.513659
LeftToeBase 8.835909 -0.000000 -0.000000
RightUpLeg -61.728134 9.566819 5.265739
RightLeg 123.672977 -0.000000 -0.000000
RightFoot -0.103121 -8.412825 4.303094
RightToeBase -1.003810 -0.000000 0.000000
406
root 12.235240 36.227346 -16.786753 162.895057 -23.551097 -162.841655
Spine 29.206443 -8.381112 11.383260
Head 29.491284 18.999297 23.359999
LeftShoulder -2.313983 -4.454022 25.714816
LeftArm 61.933946 -15.559713 -67.950097
LeftForeArm -20.068054 0.000000 38.595680
LeftHand 5.357936 0.000000 30.023762
LeftHandThumb1 -26.253704 0.000000 33.147579
RightShoulder -17.257701 -9.801397 -4.455795
RightArm 19.228167 -30.639206 67.936338
RightForeArm -5.743907 -0.000000 31.688740
RightHand -12.934062 -0.000000 7.170332
RightHandThumb1 -24.326973 -0.000000 -32.862282
LeftUpLeg 8.957400 8.265713 11.965468
LeftLeg 8.416230 -0.000000 -0.000000
LeftFoot -13.961961 13.590873 -2.332362
LeftToeBase 9.015581 -0.000000 -0.000000
RightUpLeg -62.319746 9.628530 5.565432
RightLeg 124.110824 -0.000000 -0.000000
RightFoot -0.062268 -8.298950 4.198043
RightToeBase -0.776032 -0.000000 0.000000
407
root 12.243865 36.222918 -16.803480 162.719556 -23.944788 -162.849017
Spine 29.357711 -8.561272 11.326897
Head 29.278840 18.957346 23.350085
LeftShoulder -2.190962 -4.488113 25.672555
LeftArm 62.282998 -15.463127 -67.858338
LeftForeArm -20.166593 0.000000 38.355975
LeftHand 5.398754 -0.000000 29.828465
LeftHandThumb1 -26.253704 0.000000 33.147579
RightShoulder -17.219762 -9.785821 -4.464411
RightArm 19.271475 -30.773194 68.019138
RightForeArm -5.810427 0.000000 31.639160
RightHand -12.946529 0.000000 7.078791
RightHandThumb1 -24.326973 -0.000000 -32.862282
LeftUpLeg 8.928421 8.078740 11.915643
LeftLeg 8.647357 -0.000000 -0.000000
LeftFoot -14.025893 13.423583 -2.252335
LeftToeBase 9.049896 -0.000000 -0.000000
RightUpLeg -62.951882 9.576769 5.885993
RightLeg 124.580251 -0.000000 -0.000000
RightFoot 0.044152 -8.297157 4.053594
RightToeBase -0.505823 -0.000000 0.000000
